<svg width="30" height="30" viewBox="0 0 30 30" fill="none" xmlns="http://www.w3.org/2000/svg">
<path d="M1.33375 19.2636L3.9275 21.1099C5.255 22.0536 6.82375 22.5349 8.3925 22.5349C9.50875 22.5349 10.6263 22.2911 11.6575 21.7974L27.8487 14.6749C29.7062 13.7874 30.515 11.5449 29.65 9.67487C28.7825 7.80362 26.5562 6.98487 24.68 7.84362L20.7512 9.59612L12.4775 4.48862C11.375 3.66862 9.915 3.52112 8.6625 4.09987L7.68625 4.55737C6.9225 4.91612 6.395 5.62862 6.275 6.46362C6.155 7.29987 6.46 8.13237 7.0925 8.69237L12.3475 13.3424L7.85875 15.3449L4.0375 13.9424C2.8075 13.4936 1.4325 13.8911 0.61875 14.9311C0.12875 15.5574 -0.07625 16.3461 0.04125 17.1511C0.165 17.9974 0.635 18.7661 1.3325 19.2611L1.33375 19.2636ZM8.75 6.82112L9.72 6.36612C10.135 6.17362 10.6213 6.22487 11.0763 6.55487L17.99 10.8274L14.8575 12.2249L8.75 6.82112ZM2.58875 16.4736C2.71125 16.3174 2.86875 16.2624 3.00625 16.2624C3.06875 16.2624 7.47375 17.8686 7.47375 17.8686C7.78 17.9811 8.1175 17.9699 8.41375 17.8374L25.705 10.1236L25.7212 10.1161C26.3475 9.82737 27.0913 10.1011 27.3813 10.7249C27.6738 11.3586 27.4012 12.1174 26.8062 12.4024L10.615 19.5249C8.91875 20.3336 6.91 20.1624 5.37625 19.0724L2.7825 17.2274C2.64 17.1261 2.54125 16.9636 2.51625 16.7924C2.4975 16.6649 2.5225 16.5586 2.58875 16.4736ZM30 28.7499C30 29.4411 29.44 29.9999 28.75 29.9999H1.25C0.56 29.9999 0 29.4411 0 28.7499C0 28.0586 0.56 27.4999 1.25 27.4999H28.75C29.44 27.4999 30 28.0586 30 28.7499Z" fill="#0A4A84"/>
</svg>
