<svg width="30" height="30" viewBox="0 0 30 30" fill="none" xmlns="http://www.w3.org/2000/svg">
<g clip-path="url(#clip0_1654_5231)">
<path d="M22.4923 2.85748C20.9666 1.49441 19.098 0.573212 17.0877 0.193022C15.0774 -0.187169 13.0015 -0.0119551 11.0834 0.699806C9.16523 1.41157 7.47751 2.63293 6.20183 4.23245C4.92614 5.83197 4.1108 7.74908 3.84354 9.77748C3.60351 11.556 3.79548 13.3663 4.40319 15.0549C5.0109 16.7436 6.01646 18.261 7.33479 19.4787C8.15004 20.1937 8.80789 21.0701 9.26664 22.0526C9.7254 23.0351 9.97505 24.1022 9.99979 25.1862V25.3875C10.0011 26.6104 10.4875 27.7828 11.3522 28.6475C12.2169 29.5123 13.3894 29.9987 14.6123 30H15.3873C16.6102 29.9987 17.7826 29.5123 18.6474 28.6475C19.5121 27.7828 19.9985 26.6104 19.9998 25.3875V24.7012C20.0185 23.7431 20.244 22.8002 20.6608 21.9373C21.0776 21.0743 21.6759 20.3116 22.4148 19.7012C23.613 18.6518 24.5746 17.3597 25.2358 15.9106C25.8969 14.4615 26.2426 12.8884 26.25 11.2956C26.2573 9.70276 25.9261 8.12657 25.2783 6.67143C24.6304 5.21629 23.6808 3.91541 22.4923 2.85498V2.85748ZM15.3873 27.5H14.6123C14.0522 27.4993 13.5153 27.2765 13.1193 26.8805C12.7232 26.4845 12.5005 25.9475 12.4998 25.3875C12.4998 25.3875 12.491 25.0625 12.4898 25H17.4998V25.3875C17.4991 25.9475 17.2763 26.4845 16.8803 26.8805C16.4843 27.2765 15.9474 27.4993 15.3873 27.5ZM20.7623 17.8237C19.3391 19.0582 18.3113 20.6847 17.8073 22.5H16.2498V13.52C16.9784 13.2624 17.6097 12.7859 18.0572 12.1559C18.5047 11.5258 18.7466 10.7728 18.7498 9.99998C18.7498 9.66846 18.6181 9.35052 18.3837 9.1161C18.1493 8.88168 17.8313 8.74998 17.4998 8.74998C17.1683 8.74998 16.8503 8.88168 16.6159 9.1161C16.3815 9.35052 16.2498 9.66846 16.2498 9.99998C16.2498 10.3315 16.1181 10.6494 15.8837 10.8839C15.6493 11.1183 15.3313 11.25 14.9998 11.25C14.6683 11.25 14.3503 11.1183 14.1159 10.8839C13.8815 10.6494 13.7498 10.3315 13.7498 9.99998C13.7498 9.66846 13.6181 9.35052 13.3837 9.1161C13.1493 8.88168 12.8313 8.74998 12.4998 8.74998C12.1683 8.74998 11.8503 8.88168 11.6159 9.1161C11.3815 9.35052 11.2498 9.66846 11.2498 9.99998C11.253 10.7728 11.4949 11.5258 11.9424 12.1559C12.3899 12.7859 13.0212 13.2624 13.7498 13.52V22.5H12.0973C11.5335 20.6365 10.4762 18.9602 9.03729 17.6487C7.81598 16.5107 6.94569 15.0471 6.52913 13.4306C6.11256 11.8141 6.16709 10.1121 6.6863 8.5256C7.20551 6.93907 8.16771 5.53417 9.45937 4.47669C10.751 3.4192 12.3182 2.75327 13.976 2.55748C14.3197 2.51912 14.6652 2.49992 15.011 2.49998C17.158 2.4936 19.2306 3.28576 20.826 4.72248C21.7507 5.54698 22.4895 6.55859 22.9935 7.69026C23.4975 8.82193 23.7552 10.0478 23.7495 11.2866C23.7438 12.5255 23.4749 13.7489 22.9606 14.8759C22.4462 16.0029 21.6982 17.0077 20.766 17.8237H20.7623Z" fill="#7E8795"/>
</g>
<defs>
<clipPath id="clip0_1654_5231">
<rect width="30" height="30" fill="white"/>
</clipPath>
</defs>
</svg>
