<svg width="13" height="13" viewBox="0 0 13 13" fill="none" xmlns="http://www.w3.org/2000/svg">
<g clip-path="url(#clip0_1513_4759)">
<path d="M6.5 0C5.21442 0 3.95772 0.381218 2.8888 1.09545C1.81988 1.80968 0.986756 2.82484 0.494786 4.01256C0.00281636 5.20028 -0.125905 6.50721 0.124899 7.76809C0.375703 9.02896 0.994768 10.1872 1.90381 11.0962C2.81285 12.0052 3.97104 12.6243 5.23192 12.8751C6.49279 13.1259 7.79973 12.9972 8.98745 12.5052C10.1752 12.0132 11.1903 11.1801 11.9046 10.1112C12.6188 9.04229 13 7.78558 13 6.5C12.9981 4.77667 12.3127 3.12445 11.0941 1.90586C9.87556 0.687282 8.22334 0.00186392 6.5 0ZM6.5 11.9167C5.42869 11.9167 4.38143 11.599 3.49066 11.0038C2.5999 10.4086 1.90563 9.56264 1.49566 8.57287C1.08568 7.5831 0.978413 6.49399 1.18742 5.44326C1.39642 4.39253 1.91231 3.42737 2.66984 2.66984C3.42738 1.9123 4.39253 1.39642 5.44326 1.18741C6.49399 0.97841 7.58311 1.08568 8.57287 1.49565C9.56264 1.90563 10.4086 2.5999 11.0038 3.49066C11.599 4.38143 11.9167 5.42868 11.9167 6.5C11.9151 7.93611 11.3439 9.31294 10.3284 10.3284C9.31294 11.3439 7.93611 11.9151 6.5 11.9167Z" fill="#7E8795"/>
<path d="M6.50033 5.4165H5.95866C5.815 5.4165 5.67722 5.47357 5.57564 5.57515C5.47406 5.67674 5.41699 5.81451 5.41699 5.95817C5.41699 6.10183 5.47406 6.2396 5.57564 6.34119C5.67722 6.44277 5.815 6.49984 5.95866 6.49984H6.50033V9.74984C6.50033 9.8935 6.55739 10.0313 6.65898 10.1329C6.76056 10.2344 6.89833 10.2915 7.04199 10.2915C7.18565 10.2915 7.32343 10.2344 7.42501 10.1329C7.52659 10.0313 7.58366 9.8935 7.58366 9.74984V6.49984C7.58366 6.21252 7.46952 5.93697 7.26636 5.73381C7.06319 5.53064 6.78764 5.4165 6.50033 5.4165Z" fill="#7E8795"/>
<path d="M6.5 4.3335C6.94873 4.3335 7.3125 3.96973 7.3125 3.521C7.3125 3.07226 6.94873 2.7085 6.5 2.7085C6.05127 2.7085 5.6875 3.07226 5.6875 3.521C5.6875 3.96973 6.05127 4.3335 6.5 4.3335Z" fill="#7E8795"/>
</g>
<defs>
<clipPath id="clip0_1513_4759">
<rect width="13" height="13" fill="white"/>
</clipPath>
</defs>
</svg>
