<svg width="94" height="94" viewBox="0 0 94 94" fill="none" xmlns="http://www.w3.org/2000/svg">
<g clip-path="url(#clip0_1331_1634)">
<path d="M88.5796 35.5879L73.5288 20.5372C72.797 19.8304 71.8169 19.4393 70.7996 19.4481C69.7823 19.457 68.8091 19.865 68.0897 20.5844C67.3703 21.3038 66.9622 22.277 66.9534 23.2943C66.9446 24.3117 67.3356 25.2918 68.0424 26.0236L83.0932 41.0743C83.5403 41.5303 83.9311 42.0384 84.2572 42.5875C84.199 42.5875 84.1524 42.5565 84.0942 42.5565L23.2394 42.6807C22.2104 42.6807 21.2235 43.0894 20.4958 43.8171C19.7682 44.5448 19.3594 45.5317 19.3594 46.5607C19.3594 47.5898 19.7682 48.5767 20.4958 49.3043C21.2235 50.032 22.2104 50.4408 23.2394 50.4408L84.0709 50.3166C84.1796 50.3166 84.2688 50.2623 84.3736 50.2545C84.0294 50.9109 83.593 51.5145 83.0776 52.0471L68.0269 67.0978C67.6563 67.4558 67.3607 67.8839 67.1574 68.3573C66.954 68.8307 66.847 69.3398 66.8425 69.855C66.838 70.3702 66.9362 70.8811 67.1313 71.358C67.3264 71.8348 67.6145 72.268 67.9788 72.6323C68.3431 72.9966 68.7763 73.2848 69.2532 73.4799C69.73 73.6749 70.241 73.7731 70.7561 73.7686C71.2713 73.7642 71.7805 73.6571 72.2539 73.4538C72.7272 73.2504 73.1554 72.9548 73.5133 72.5842L88.564 57.5335C91.4736 54.623 93.1082 50.6761 93.1082 46.5607C93.1082 42.4453 91.4736 38.4984 88.564 35.5879H88.5796Z" fill="#31353B"/>
<path d="M27.1604 85.3612H19.4003C16.3131 85.3612 13.3524 84.1349 11.1694 81.9519C8.98648 79.7689 7.76011 76.8082 7.76011 73.7211V19.4003C7.76011 16.3131 8.98648 13.3524 11.1694 11.1694C13.3524 8.98648 16.3131 7.76011 19.4003 7.76011H27.1604C28.1894 7.76011 29.1764 7.35132 29.904 6.62367C30.6317 5.89602 31.0404 4.90911 31.0404 3.88006C31.0404 2.851 30.6317 1.86409 29.904 1.13644C29.1764 0.40879 28.1894 0 27.1604 0L19.4003 0C14.2569 0.00616098 9.32594 2.05209 5.68902 5.68901C2.05209 9.32594 0.00616098 14.2569 0 19.4003L0 73.7211C0.00616098 78.8644 2.05209 83.7954 5.68902 87.4323C9.32594 91.0693 14.2569 93.1152 19.4003 93.1213H27.1604C28.1894 93.1213 29.1764 92.7125 29.904 91.9849C30.6317 91.2572 31.0404 90.2703 31.0404 89.2413C31.0404 88.2122 30.6317 87.2253 29.904 86.4977C29.1764 85.77 28.1894 85.3612 27.1604 85.3612Z" fill="#31353B"/>
</g>
<defs>
<clipPath id="clip0_1331_1634">
<rect width="93.1213" height="93.1213" fill="white"/>
</clipPath>
</defs>
</svg>
