<svg width="114" height="114" viewBox="0 0 114 114" fill="none" xmlns="http://www.w3.org/2000/svg">
<path d="M49.7544 8.84994C53.501 4.27378 60.499 4.27378 64.2456 8.84994V8.84994C66.7921 11.9603 71.0396 13.0984 74.8001 11.678V11.678C80.3329 9.58823 86.3934 13.0873 87.3499 18.9236V18.9236C88.0001 22.8905 91.1095 25.9999 95.0764 26.6501V26.6501C100.913 27.6066 104.412 33.6671 102.322 39.1999V39.1999C100.902 42.9604 102.04 47.2079 105.15 49.7544V49.7544C109.726 53.501 109.726 60.499 105.15 64.2456V64.2456C102.04 66.7921 100.902 71.0396 102.322 74.8001V74.8001C104.412 80.3329 100.913 86.3934 95.0764 87.3499V87.3499C91.1095 88.0001 88.0001 91.1095 87.3499 95.0764V95.0764C86.3934 100.913 80.3329 104.412 74.8001 102.322V102.322C71.0396 100.902 66.7921 102.04 64.2456 105.15V105.15C60.499 109.726 53.501 109.726 49.7544 105.15V105.15C47.2079 102.04 42.9604 100.902 39.1999 102.322V102.322C33.6671 104.412 27.6066 100.913 26.6501 95.0764V95.0764C25.9999 91.1095 22.8905 88.0001 18.9236 87.3499V87.3499C13.0873 86.3934 9.58823 80.3329 11.678 74.8001V74.8001C13.0984 71.0396 11.9603 66.7921 8.84994 64.2456V64.2456C4.27378 60.499 4.27378 53.501 8.84994 49.7544V49.7544C11.9603 47.2079 13.0984 42.9604 11.678 39.1999V39.1999C9.58823 33.6671 13.0873 27.6066 18.9236 26.6501V26.6501C22.8905 25.9999 25.9999 22.8905 26.6501 18.9236V18.9236C27.6066 13.0873 33.6671 9.58823 39.1999 11.678V11.678C42.9604 13.0984 47.2079 11.9603 49.7544 8.84994V8.84994Z" fill="#C7CCD4"/>
<path d="M54.2268 71.35L51.9768 24.55H61.0668L58.7268 71.35H54.2268ZM51.8868 78.82H61.0668V88H51.8868V78.82Z" fill="white"/>
</svg>
